<?xml version="1.0" encoding="UTF-8" standalone="no" ?>
<!DOCTYPE svg PUBLIC "-//W3C//DTD SVG 1.1//EN" "http://www.w3.org/Graphics/SVG/1.1/DTD/svg11.dtd">
<svg xmlns="http://www.w3.org/2000/svg" xmlns:xlink="http://www.w3.org/1999/xlink" version="1.1" width="500" height="82" viewBox="0 0 500 82" xml:space="preserve">
<desc>Created with Fabric.js 5.3.0</desc>
<defs>
</defs>
<g transform="matrix(0.8202103798 0 0 0.8366601958 233.7821151767 32.9316742457)" id="SyUMd3tN0eImJZ1awYiUT"  >
<path style="stroke: none; stroke-width: 1; stroke-dasharray: none; stroke-linecap: butt; stroke-dashoffset: 0; stroke-linejoin: miter; stroke-miterlimit: 4; fill: rgb(219,66,65); fill-rule: nonzero; opacity: 1;" vector-effect="non-scaling-stroke"  transform=" translate(-40, -39.9995)" d="M 60 4.346 C 71 4.346 80 13.973 80 25.738 C 80 58.45 40 74.762 40 75.65299999999999 L 40 75.65299999999999 C 40 74.763 0 58.54 0 25.738 C 0 13.884 9 4.346 20 4.346 C 31.1 4.346 40 10.835 40 22.689 C 40 10.835 48.9 4.346 60 4.346 z" stroke-linecap="round" />
</g>
<g transform="matrix(0.6751682159 0.8641759083 -0.8641759083 0.6751682159 240.92912623 54.290606641)" id="xcfh4jizfUkxvMdC4TS89"  >
<g style="" vector-effect="non-scaling-stroke"   >
		<g transform="matrix(1 0 0 1 0 0)" id="BelJy41HnA4KRk18sOuIL"  >
<path style="stroke: rgb(217,67,68); stroke-width: 1; stroke-dasharray: none; stroke-linecap: butt; stroke-dashoffset: 0; stroke-linejoin: miter; stroke-miterlimit: 4; fill: rgb(255,255,255); fill-rule: nonzero; opacity: 1;" vector-effect="non-scaling-stroke"  transform=" translate(0.000005, -0.000005)" d="M 0.48291 -22.13967 L -1.90258 -16.67787 L -15.936110000000001 15.453200000000002 L -13.558700000000002 16.567610000000002 C -13.558700000000002 16.567610000000002 -11.478460000000002 12.035660000000002 -6.129280000000001 14.264490000000002 C -0.7801000000000018 16.49332 -2.711750000000001 21.248150000000003 -2.711750000000001 21.248150000000003 L -0.48292000000000135 22.139680000000002 L 15.936099999999998 -15.601779999999994 L 13.707269999999998 -16.641899999999993 C 13.707269999999998 -16.641899999999993 10.958379999999998 -12.128529999999992 6.129259999999998 -14.115899999999993 C 1.300139999999998 -16.10326999999999 2.7117299999999975 -21.322439999999993 2.7117299999999975 -21.322439999999993 z" stroke-linecap="round" />
</g>
		<g transform="matrix(0.0843763684 0.0358156435 -0.0375216787 0.0883955355 -4.8621025122 11.12711577)" id="reyximZFaMlHqpITdl0Tp"  >
<path style="stroke: none; stroke-width: 1; stroke-dasharray: none; stroke-linecap: butt; stroke-dashoffset: 0; stroke-linejoin: miter; stroke-miterlimit: 4; fill: rgb(217,67,68); fill-rule: nonzero; opacity: 1;" vector-effect="non-scaling-stroke"  transform=" translate(0, 0)" d="M 91.705 -0.0025 C 91.705 1.7835 90.269 3.2165 88.488 3.2165 L 72.396 3.2165 C 70.619 3.2165 69.183 1.7825 69.183 -0.0024999999999999467 C 69.183 -1.7794999999999999 70.62 -3.2165 72.396 -3.2165 L 88.488 -3.2165 C 90.269 -3.2165 91.705 -1.7794999999999999 91.705 -0.0024999999999999467 z M 56.312 -3.2165 L 40.22 -3.2165 C 38.443 -3.2165 37.007 -1.7794999999999999 37.007 -0.0024999999999999467 C 37.007 1.7835 38.443999999999996 3.2165 40.22 3.2165 L 56.312 3.2165 C 58.092 3.2165 59.528 1.7825 59.528 -0.0024999999999999467 C 59.528999999999996 -1.7794999999999999 58.092 -3.2165 56.312 -3.2165 z M -40.22 -3.2165 L -56.308 -3.2165 C -58.084 -3.2165 -59.528 -1.7794999999999999 -59.528 -0.0024999999999999467 C -59.528 1.7835 -58.083999999999996 3.2165 -56.308 3.2165 L -40.22 3.2165 C -38.443 3.2165 -37.003 1.7825 -37.003 -0.0024999999999999467 C -37.003 -1.7794999999999999 -38.443 -3.2165 -40.22 -3.2165 z M -72.397 -3.2165 L -88.488 -3.2165 C -90.259 -3.2165 -91.705 -1.7794999999999999 -91.705 -0.0024999999999999467 C -91.705 1.7835 -90.26 3.2165 -88.488 3.2165 L -72.39699999999999 3.2165 C -70.618 3.2165 -69.18299999999999 1.7825 -69.18299999999999 -0.0024999999999999467 C -69.18299999999999 -1.7794999999999999 -70.618 -3.2165 -72.39699999999999 -3.2165 z M 24.132 -3.2165 L 8.045000000000002 -3.2165 C 6.267000000000001 -3.2165 4.828000000000001 -1.7794999999999999 4.828000000000001 -0.0024999999999999467 C 4.828000000000001 1.7835 6.266000000000001 3.2165 8.045000000000002 3.2165 L 24.132 3.2165 C 25.913 3.2165 27.353 1.7825 27.353 -0.0024999999999999467 C 27.353 -1.7794999999999999 25.913 -3.2165 24.132 -3.2165 z M -8.044 -3.2165 L -24.133 -3.2165 C -25.91 -3.2165 -27.352999999999998 -1.7794999999999999 -27.352999999999998 -0.0024999999999999467 C -27.352999999999998 1.7835 -25.910999999999998 3.2165 -24.133 3.2165 L -8.044999999999998 3.2165 C -6.267999999999998 3.2165 -4.8249999999999975 1.7825 -4.8249999999999975 -0.0024999999999999467 C -4.823999999999997 -1.7794999999999999 -6.266999999999998 -3.2165 -8.043999999999997 -3.2165 z" stroke-linecap="round" />
</g>
		<g transform="matrix(0.0843763684 0.0358156435 -0.0375216787 0.0883955355 4.5388559543 -10.2626605878)" id="gk6KeFzTugGC6wyuisB0e"  >
<path style="stroke: none; stroke-width: 1; stroke-dasharray: none; stroke-linecap: butt; stroke-dashoffset: 0; stroke-linejoin: miter; stroke-miterlimit: 4; fill: rgb(217,67,68); fill-rule: nonzero; opacity: 1;" vector-effect="non-scaling-stroke"  transform=" translate(0, 0)" d="M 91.705 -0.0025 C 91.705 1.7835 90.269 3.2165 88.488 3.2165 L 72.396 3.2165 C 70.619 3.2165 69.183 1.7825 69.183 -0.0024999999999999467 C 69.183 -1.7794999999999999 70.62 -3.2165 72.396 -3.2165 L 88.488 -3.2165 C 90.269 -3.2165 91.705 -1.7794999999999999 91.705 -0.0024999999999999467 z M 56.312 -3.2165 L 40.22 -3.2165 C 38.443 -3.2165 37.007 -1.7794999999999999 37.007 -0.0024999999999999467 C 37.007 1.7835 38.443999999999996 3.2165 40.22 3.2165 L 56.312 3.2165 C 58.092 3.2165 59.528 1.7825 59.528 -0.0024999999999999467 C 59.528999999999996 -1.7794999999999999 58.092 -3.2165 56.312 -3.2165 z M -40.22 -3.2165 L -56.308 -3.2165 C -58.084 -3.2165 -59.528 -1.7794999999999999 -59.528 -0.0024999999999999467 C -59.528 1.7835 -58.083999999999996 3.2165 -56.308 3.2165 L -40.22 3.2165 C -38.443 3.2165 -37.003 1.7825 -37.003 -0.0024999999999999467 C -37.003 -1.7794999999999999 -38.443 -3.2165 -40.22 -3.2165 z M -72.397 -3.2165 L -88.488 -3.2165 C -90.259 -3.2165 -91.705 -1.7794999999999999 -91.705 -0.0024999999999999467 C -91.705 1.7835 -90.26 3.2165 -88.488 3.2165 L -72.39699999999999 3.2165 C -70.618 3.2165 -69.18299999999999 1.7825 -69.18299999999999 -0.0024999999999999467 C -69.18299999999999 -1.7794999999999999 -70.618 -3.2165 -72.39699999999999 -3.2165 z M 24.132 -3.2165 L 8.045000000000002 -3.2165 C 6.267000000000001 -3.2165 4.828000000000001 -1.7794999999999999 4.828000000000001 -0.0024999999999999467 C 4.828000000000001 1.7835 6.266000000000001 3.2165 8.045000000000002 3.2165 L 24.132 3.2165 C 25.913 3.2165 27.353 1.7825 27.353 -0.0024999999999999467 C 27.353 -1.7794999999999999 25.913 -3.2165 24.132 -3.2165 z M -8.044 -3.2165 L -24.133 -3.2165 C -25.91 -3.2165 -27.352999999999998 -1.7794999999999999 -27.352999999999998 -0.0024999999999999467 C -27.352999999999998 1.7835 -25.910999999999998 3.2165 -24.133 3.2165 L -8.044999999999998 3.2165 C -6.267999999999998 3.2165 -4.8249999999999975 1.7825 -4.8249999999999975 -0.0024999999999999467 C -4.823999999999997 -1.7794999999999999 -6.266999999999998 -3.2165 -8.043999999999997 -3.2165 z" stroke-linecap="round" />
</g>
</g>
</g>
<g transform="matrix(1.0966549686 0 0 1.0966549686 224.575499505 54.94475171)" id="-FjIMVeYi9x6PuIXJ14Tf"  >
<g style="" vector-effect="non-scaling-stroke"   >
		<g transform="matrix(1 0 0 1 0 0)" id="BSQcbKTQLEAUe2dkxMZ6h"  >
<path style="stroke: rgb(217,67,68); stroke-width: 1; stroke-dasharray: none; stroke-linecap: butt; stroke-dashoffset: 0; stroke-linejoin: miter; stroke-miterlimit: 4; fill: rgb(255,255,255); fill-rule: nonzero; opacity: 1;" vector-effect="non-scaling-stroke"  transform=" translate(0.000005, -0.000005)" d="M 0.48291 -22.13967 L -1.90258 -16.67787 L -15.936110000000001 15.453200000000002 L -13.558700000000002 16.567610000000002 C -13.558700000000002 16.567610000000002 -11.478460000000002 12.035660000000002 -6.129280000000001 14.264490000000002 C -0.7801000000000018 16.49332 -2.711750000000001 21.248150000000003 -2.711750000000001 21.248150000000003 L -0.48292000000000135 22.139680000000002 L 15.936099999999998 -15.601779999999994 L 13.707269999999998 -16.641899999999993 C 13.707269999999998 -16.641899999999993 10.958379999999998 -12.128529999999992 6.129259999999998 -14.115899999999993 C 1.300139999999998 -16.10326999999999 2.7117299999999975 -21.322439999999993 2.7117299999999975 -21.322439999999993 z" stroke-linecap="round" />
</g>
		<g transform="matrix(0.0843763684 0.0358156435 -0.0375216787 0.0883955355 -4.8621025122 11.12711577)" id="RJYTT1LyRpaTxf4UQVsRa"  >
<path style="stroke: none; stroke-width: 1; stroke-dasharray: none; stroke-linecap: butt; stroke-dashoffset: 0; stroke-linejoin: miter; stroke-miterlimit: 4; fill: rgb(217,67,68); fill-rule: nonzero; opacity: 1;" vector-effect="non-scaling-stroke"  transform=" translate(0, 0)" d="M 91.705 -0.0025 C 91.705 1.7835 90.269 3.2165 88.488 3.2165 L 72.396 3.2165 C 70.619 3.2165 69.183 1.7825 69.183 -0.0024999999999999467 C 69.183 -1.7794999999999999 70.62 -3.2165 72.396 -3.2165 L 88.488 -3.2165 C 90.269 -3.2165 91.705 -1.7794999999999999 91.705 -0.0024999999999999467 z M 56.312 -3.2165 L 40.22 -3.2165 C 38.443 -3.2165 37.007 -1.7794999999999999 37.007 -0.0024999999999999467 C 37.007 1.7835 38.443999999999996 3.2165 40.22 3.2165 L 56.312 3.2165 C 58.092 3.2165 59.528 1.7825 59.528 -0.0024999999999999467 C 59.528999999999996 -1.7794999999999999 58.092 -3.2165 56.312 -3.2165 z M -40.22 -3.2165 L -56.308 -3.2165 C -58.084 -3.2165 -59.528 -1.7794999999999999 -59.528 -0.0024999999999999467 C -59.528 1.7835 -58.083999999999996 3.2165 -56.308 3.2165 L -40.22 3.2165 C -38.443 3.2165 -37.003 1.7825 -37.003 -0.0024999999999999467 C -37.003 -1.7794999999999999 -38.443 -3.2165 -40.22 -3.2165 z M -72.397 -3.2165 L -88.488 -3.2165 C -90.259 -3.2165 -91.705 -1.7794999999999999 -91.705 -0.0024999999999999467 C -91.705 1.7835 -90.26 3.2165 -88.488 3.2165 L -72.39699999999999 3.2165 C -70.618 3.2165 -69.18299999999999 1.7825 -69.18299999999999 -0.0024999999999999467 C -69.18299999999999 -1.7794999999999999 -70.618 -3.2165 -72.39699999999999 -3.2165 z M 24.132 -3.2165 L 8.045000000000002 -3.2165 C 6.267000000000001 -3.2165 4.828000000000001 -1.7794999999999999 4.828000000000001 -0.0024999999999999467 C 4.828000000000001 1.7835 6.266000000000001 3.2165 8.045000000000002 3.2165 L 24.132 3.2165 C 25.913 3.2165 27.353 1.7825 27.353 -0.0024999999999999467 C 27.353 -1.7794999999999999 25.913 -3.2165 24.132 -3.2165 z M -8.044 -3.2165 L -24.133 -3.2165 C -25.91 -3.2165 -27.352999999999998 -1.7794999999999999 -27.352999999999998 -0.0024999999999999467 C -27.352999999999998 1.7835 -25.910999999999998 3.2165 -24.133 3.2165 L -8.044999999999998 3.2165 C -6.267999999999998 3.2165 -4.8249999999999975 1.7825 -4.8249999999999975 -0.0024999999999999467 C -4.823999999999997 -1.7794999999999999 -6.266999999999998 -3.2165 -8.043999999999997 -3.2165 z" stroke-linecap="round" />
</g>
		<g transform="matrix(0.0843763684 0.0358156435 -0.0375216787 0.0883955355 4.5388559543 -10.2626605878)" id="N-L6lavIDWWuE5-iyxvmD"  >
<path style="stroke: none; stroke-width: 1; stroke-dasharray: none; stroke-linecap: butt; stroke-dashoffset: 0; stroke-linejoin: miter; stroke-miterlimit: 4; fill: rgb(217,67,68); fill-rule: nonzero; opacity: 1;" vector-effect="non-scaling-stroke"  transform=" translate(0, 0)" d="M 91.705 -0.0025 C 91.705 1.7835 90.269 3.2165 88.488 3.2165 L 72.396 3.2165 C 70.619 3.2165 69.183 1.7825 69.183 -0.0024999999999999467 C 69.183 -1.7794999999999999 70.62 -3.2165 72.396 -3.2165 L 88.488 -3.2165 C 90.269 -3.2165 91.705 -1.7794999999999999 91.705 -0.0024999999999999467 z M 56.312 -3.2165 L 40.22 -3.2165 C 38.443 -3.2165 37.007 -1.7794999999999999 37.007 -0.0024999999999999467 C 37.007 1.7835 38.443999999999996 3.2165 40.22 3.2165 L 56.312 3.2165 C 58.092 3.2165 59.528 1.7825 59.528 -0.0024999999999999467 C 59.528999999999996 -1.7794999999999999 58.092 -3.2165 56.312 -3.2165 z M -40.22 -3.2165 L -56.308 -3.2165 C -58.084 -3.2165 -59.528 -1.7794999999999999 -59.528 -0.0024999999999999467 C -59.528 1.7835 -58.083999999999996 3.2165 -56.308 3.2165 L -40.22 3.2165 C -38.443 3.2165 -37.003 1.7825 -37.003 -0.0024999999999999467 C -37.003 -1.7794999999999999 -38.443 -3.2165 -40.22 -3.2165 z M -72.397 -3.2165 L -88.488 -3.2165 C -90.259 -3.2165 -91.705 -1.7794999999999999 -91.705 -0.0024999999999999467 C -91.705 1.7835 -90.26 3.2165 -88.488 3.2165 L -72.39699999999999 3.2165 C -70.618 3.2165 -69.18299999999999 1.7825 -69.18299999999999 -0.0024999999999999467 C -69.18299999999999 -1.7794999999999999 -70.618 -3.2165 -72.39699999999999 -3.2165 z M 24.132 -3.2165 L 8.045000000000002 -3.2165 C 6.267000000000001 -3.2165 4.828000000000001 -1.7794999999999999 4.828000000000001 -0.0024999999999999467 C 4.828000000000001 1.7835 6.266000000000001 3.2165 8.045000000000002 3.2165 L 24.132 3.2165 C 25.913 3.2165 27.353 1.7825 27.353 -0.0024999999999999467 C 27.353 -1.7794999999999999 25.913 -3.2165 24.132 -3.2165 z M -8.044 -3.2165 L -24.133 -3.2165 C -25.91 -3.2165 -27.352999999999998 -1.7794999999999999 -27.352999999999998 -0.0024999999999999467 C -27.352999999999998 1.7835 -25.910999999999998 3.2165 -24.133 3.2165 L -8.044999999999998 3.2165 C -6.267999999999998 3.2165 -4.8249999999999975 1.7825 -4.8249999999999975 -0.0024999999999999467 C -4.823999999999997 -1.7794999999999999 -6.266999999999998 -3.2165 -8.043999999999997 -3.2165 z" stroke-linecap="round" />
</g>
</g>
</g>
<g transform="matrix(0.9963304694 0 0 0.9963304694 89.3667385513 48.2103262305)" id="1TQOURgdYqHJD468nxsvu"  >
<path style="stroke: none; stroke-width: 1; stroke-dasharray: none; stroke-linecap: butt; stroke-dashoffset: 0; stroke-linejoin: miter; stroke-miterlimit: 4; fill: rgb(219,66,65); fill-rule: nonzero; opacity: 1;" vector-effect="non-scaling-stroke"  transform=" translate(-89.3415, -45.825)" d="M 41.841 41.67 L 41.841 41.67 Q 41.841 44.798 41.007 47.612 Q 40.173 50.427 38.669 52.81 Q 37.165 55.193 35.08 57.114 Q 32.995 59.035 30.478 60.375 Q 27.961 61.716 25.087 62.445 Q 22.213 63.175 19.175 63.175 L 19.175 63.175 L 0.261 63.175 L 0.261 20.285 L 19.175 20.285 Q 22.213 20.285 25.072 20.999 Q 27.931 21.714 30.448 23.04 Q 32.965 24.365 35.065 26.271 Q 37.165 28.178 38.669 30.546 Q 40.173 32.913 41.007 35.728 Q 41.841 38.543 41.841 41.67 Z M 29.838 41.67 L 29.838 41.67 Q 29.838 38.185 28.989 35.043 Q 28.14 31.901 26.353 29.518 Q 24.566 27.135 21.811 25.735 Q 19.055 24.335 15.213 24.335 L 15.213 24.335 L 12.086 24.335 L 12.086 59.005 L 15.213 59.005 Q 18.996 59.005 21.751 57.59 Q 24.506 56.176 26.308 53.778 Q 28.11 51.38 28.974 48.253 Q 29.838 45.125 29.838 41.67 Z M 94.824 42.653 L 94.824 42.653 L 94.824 43.219 Q 94.765 45.721 94.303 48.402 Q 93.841 51.082 93.007 53.763 Q 92.173 56.444 91.012 59.065 Q 89.85 61.686 88.405 64.084 Q 86.961 66.481 85.293 68.581 Q 83.625 70.681 81.778 72.289 L 81.778 72.289 L 77.34 69.728 Q 78.383 67.971 79.232 65.901 Q 80.08 63.83 80.766 61.567 Q 81.451 59.303 81.942 56.92 Q 82.433 54.537 82.761 52.184 Q 83.089 49.831 83.253 47.553 Q 83.416 45.274 83.416 43.219 L 83.416 43.219 Q 83.416 41.611 83.401 39.57 Q 83.387 37.53 83.163 35.415 Q 82.94 33.301 82.433 31.29 Q 81.927 29.28 80.929 27.701 Q 79.932 26.122 78.368 25.169 Q 76.804 24.216 74.481 24.216 L 74.481 24.216 Q 72.426 24.216 70.951 24.916 Q 69.477 25.616 68.449 26.793 Q 67.422 27.969 66.811 29.518 Q 66.201 31.067 65.858 32.779 Q 65.516 34.492 65.411 36.234 Q 65.307 37.977 65.307 39.526 L 65.307 39.526 L 65.307 47.836 L 78.144 47.836 L 78.144 52.75 L 65.307 52.75 L 65.307 63.175 L 53.482 63.175 L 53.482 41.372 Q 53.482 36.696 54.972 32.675 Q 56.461 28.654 59.186 25.691 Q 61.912 22.727 65.739 21.044 Q 69.566 19.361 74.272 19.361 L 74.272 19.361 Q 77.459 19.361 80.244 20.27 Q 83.029 21.178 85.323 22.772 Q 87.616 24.365 89.418 26.554 Q 91.22 28.744 92.426 31.335 Q 93.633 33.926 94.258 36.815 Q 94.884 39.704 94.824 42.653 Z M 125.021 25.765 L 125.021 63.175 L 113.197 63.175 L 113.197 25.765 L 101.521 25.765 L 101.521 20.285 L 136.697 20.285 L 136.697 25.765 L 125.021 25.765 Z M 178.422 57.695 L 178.422 63.175 L 147.624 63.175 L 147.624 20.285 L 178.422 20.285 L 178.422 25.765 L 159.448 25.765 L 159.448 39.019 L 174.103 39.019 L 174.103 44.47 L 159.448 44.47 L 159.448 57.695 L 178.422 57.695 Z" stroke-linecap="round" />
</g>
<g transform="matrix(0.9963304694 0 0 0.9963304694 395.7019918397 44.0561263382)" id="hlntkeYXNlI9FTYMO9oMh"  >
<path style="stroke: none; stroke-width: 1; stroke-dasharray: none; stroke-linecap: butt; stroke-dashoffset: 0; stroke-linejoin: miter; stroke-miterlimit: 4; fill: rgb(219,66,65); fill-rule: nonzero; opacity: 1;" vector-effect="non-scaling-stroke"  transform=" translate(-396.805, -41.6555)" d="M 298.281 33.747 L 298.281 63.175 L 292.8 63.175 L 292.8 20.285 L 300.485 20.285 L 326.547 49.742 L 326.547 20.285 L 331.998 20.285 L 331.998 63.175 L 324.313 63.175 L 298.281 33.747 Z M 355.972 20.285 L 355.972 63.175 L 344.148 63.175 L 344.148 20.285 L 355.972 20.285 Z M 407.081 30.918 L 407.081 30.918 L 401.988 33.062 Q 401.392 31.126 400.395 29.518 Q 399.397 27.91 398.012 26.763 Q 396.627 25.616 394.869 24.976 Q 393.112 24.335 391.027 24.335 L 391.027 24.335 Q 388.793 24.335 386.932 25.08 Q 385.07 25.825 383.596 27.09 Q 382.121 28.356 381.019 30.054 Q 379.917 31.752 379.187 33.673 Q 378.458 35.594 378.085 37.649 Q 377.713 39.704 377.713 41.67 L 377.713 41.67 Q 377.713 44.798 378.443 47.895 Q 379.173 50.993 380.766 53.465 Q 382.36 55.937 384.891 57.471 Q 387.423 59.005 391.027 59.005 L 391.027 59.005 Q 392.993 59.005 394.095 58.127 Q 395.197 57.248 395.197 55.044 L 395.197 55.044 L 395.197 41.879 L 407.022 41.879 L 407.022 63.175 L 403.596 63.175 L 401.511 59.809 Q 398.652 61.984 395.212 63.011 Q 391.772 64.039 388.197 64.039 L 388.197 64.039 Q 385.04 64.039 382.136 63.265 Q 379.232 62.49 376.73 61.06 Q 374.228 59.631 372.188 57.605 Q 370.148 55.58 368.703 53.108 Q 367.259 50.636 366.469 47.732 Q 365.68 44.828 365.68 41.67 L 365.68 41.67 Q 365.68 38.513 366.469 35.609 Q 367.259 32.705 368.703 30.218 Q 370.148 27.731 372.188 25.705 Q 374.228 23.68 376.73 22.25 Q 379.232 20.821 382.136 20.046 Q 385.04 19.272 388.197 19.272 L 388.197 19.272 Q 391.236 19.272 394.14 19.987 Q 397.044 20.702 399.546 22.146 Q 402.048 23.591 403.999 25.78 Q 405.949 27.969 407.081 30.918 Z M 429.656 44.47 L 429.656 63.175 L 417.831 63.175 L 417.831 20.285 L 429.656 20.285 L 429.656 39.019 L 445.323 39.019 L 445.323 20.285 L 457.148 20.285 L 457.148 63.175 L 445.323 63.175 L 445.323 44.47 L 429.656 44.47 Z M 489.135 25.765 L 489.135 63.175 L 477.31 63.175 L 477.31 25.765 L 465.634 25.765 L 465.634 20.285 L 500.81 20.285 L 500.81 25.765 L 489.135 25.765 Z" stroke-linecap="round" />
</g>
</svg>